<?xml version="1.0" encoding="UTF-8"?>
<svg xmlns="http://www.w3.org/2000/svg" width="1200" height="5096" viewBox="0 0 600 2548" role="img" aria-labelledby="title desc">
<title id="title">The Six Essential Nutrients</title>
<desc id="desc">Diagram for The Six Essential Nutrients: the six nutrient groups connected to their broad roles: carbohydrates and fats with energy, protein with growth and repair, vitamins and minerals with body processes, and water with hydration and body functions, while also showing that foods can provide more than one nutrient. A hub linking foods with six nutrients. Carbohydrates and fats connect with energy, protein with growth and repair, vitamins and minerals with body processes, and water with hydration and body functions. Multiple links from foods show that foods can provide more than one nutrient.</desc>
<style>text{font-family:Inter,Arial,sans-serif;fill:#202632}.title{font-size:30px;font-weight:800}.eyebrow{font-size:27px;font-weight:800;letter-spacing:1.1px;fill:#9b4e14}.node{font-size:27px;font-weight:760}.node-small{font-size:27px;font-weight:760}.num{font-size:27px;font-weight:850;fill:white}.form-label{font-size:27px;font-weight:800;fill:#596273}.relation-title,.legend-title{font-size:27px;font-weight:850;fill:#303c78}.relation{font-size:27px;font-weight:700}.relation-steps{font-weight:900;fill:#303c78}.group{font-size:27px;fill:#515966}.group-label{font-weight:850;fill:#303c78}.legend{font-size:27px;fill:#515966}.legend-key{font-weight:900;fill:#202632;text-transform:capitalize}.footer{font-size:27px;fill:#66707c}</style>
<style id="mobile-type-floor">.eyebrow,.node-small,.num,.form-label,.relation,.group,.legend,.footer{font-size:27px}.branch-key{font-size:27px;font-weight:900;fill:#303c78}.branch-text{font-size:27px;font-weight:700;fill:#384354}</style>
<rect width="600" height="2548" rx="28" fill="#fffdf8"/>
<rect x="18" y="18" width="564" height="2512" rx="22" fill="none" stroke="#f0d8bd" stroke-width="2"/>
<text x="30" y="54" class="eyebrow">FANTASTIC FOOD • HUB MAP</text>
<text x="30" y="96" class="title"><tspan x="30" dy="0">The Six Essential Nutrients</tspan></text>
<defs><marker id="arrow" viewBox="0 0 10 10" refX="8" refY="5" markerWidth="8" markerHeight="8" orient="auto"><path d="M 0 0 L 10 5 L 0 10 z" fill="#525d6c"/></marker><filter id="shadow" x="-20%" y="-20%" width="140%" height="150%"><feDropShadow dx="0" dy="3" stdDeviation="4" flood-color="#232938" flood-opacity=".12"/></filter></defs>
<rect x="20" y="330" width="560" height="975" rx="24" fill="#f8fbfd" stroke="#c9dbe8" stroke-width="3"/><text x="300" y="361" text-anchor="middle" class="form-label">Foods may provide several nutrients</text>
<g aria-label="Directional arrows"><path d="M 252.8 463.4 L 328.4 478.4" fill="none" stroke="#525d6c" stroke-width="4" marker-end="url(#arrow)"/><path d="M 252.8 546.6 L 328.4 531.6" fill="none" stroke="#525d6c" stroke-width="4" marker-end="url(#arrow)"/><path d="M 253.0 740.0 L 328.0 740.0" fill="none" stroke="#525d6c" stroke-width="4" marker-end="url(#arrow)"/><path d="M 252.8 933.4 L 328.4 948.4" fill="none" stroke="#525d6c" stroke-width="4" marker-end="url(#arrow)"/><path d="M 252.8 1016.6 L 328.4 1001.6" fill="none" stroke="#525d6c" stroke-width="4" marker-end="url(#arrow)"/><path d="M 253.0 1210.0 L 328.0 1210.0" fill="none" stroke="#525d6c" stroke-width="4" marker-end="url(#arrow)"/></g>
<g aria-label="Concepts"><g aria-label="Foods"><ellipse cx="300" cy="217.5" rx="130" ry="52.5" fill="#fff0bf" stroke="#8b5b00" stroke-width="4" filter="url(#shadow)"/><circle cx="194" cy="189" r="17" fill="#8b5b00"/><text x="194" y="197" text-anchor="middle" class="num">1</text><text x="300" y="226.5" text-anchor="middle" class="node"><tspan x="300" dy="0">Foods</tspan></text></g><g aria-label="Carbohydrates"><rect x="25" y="390" width="220" height="100" rx="18" fill="#e1effa" stroke="#245f87" stroke-width="4" filter="url(#shadow)"/><circle cx="49" cy="414" r="17" fill="#245f87"/><text x="49" y="422" text-anchor="middle" class="num">2</text><text x="135" y="449" text-anchor="middle" class="node-small"><tspan x="135" dy="0">Carbohydrates</tspan></text></g><g aria-label="Fats"><rect x="25" y="520" width="220" height="100" rx="18" fill="#e1effa" stroke="#245f87" stroke-width="4" filter="url(#shadow)"/><circle cx="49" cy="544" r="17" fill="#245f87"/><text x="49" y="552" text-anchor="middle" class="num">3</text><text x="135" y="579" text-anchor="middle" class="node"><tspan x="135" dy="0">Fats</tspan></text></g><g aria-label="Energy"><rect x="350" y="455" width="225" height="100" rx="18" fill="#dff4e8" stroke="#236443" stroke-width="4" filter="url(#shadow)"/><circle cx="374" cy="479" r="17" fill="#236443"/><text x="374" y="487" text-anchor="middle" class="num">8</text><text x="462.5" y="514" text-anchor="middle" class="node"><tspan x="462.5" dy="0">Energy</tspan></text></g><g aria-label="Protein"><rect x="25" y="690" width="220" height="100" rx="18" fill="#e1effa" stroke="#245f87" stroke-width="4" filter="url(#shadow)"/><circle cx="49" cy="714" r="17" fill="#245f87"/><text x="49" y="722" text-anchor="middle" class="num">4</text><text x="135" y="749" text-anchor="middle" class="node"><tspan x="135" dy="0">Protein</tspan></text></g><g aria-label="Growth and repair"><rect x="350" y="690" width="225" height="100" rx="18" fill="#dff4e8" stroke="#236443" stroke-width="4" filter="url(#shadow)"/><circle cx="374" cy="714" r="17" fill="#236443"/><text x="374" y="722" text-anchor="middle" class="num">9</text><text x="462.5" y="736.5" text-anchor="middle" class="node-small"><tspan x="462.5" dy="0">Growth and</tspan><tspan x="462.5" dy="25">repair</tspan></text></g><g aria-label="Vitamins"><rect x="25" y="860" width="220" height="100" rx="18" fill="#e1effa" stroke="#245f87" stroke-width="4" filter="url(#shadow)"/><circle cx="49" cy="884" r="17" fill="#245f87"/><text x="49" y="892" text-anchor="middle" class="num">5</text><text x="135" y="919" text-anchor="middle" class="node"><tspan x="135" dy="0">Vitamins</tspan></text></g><g aria-label="Minerals"><rect x="25" y="990" width="220" height="100" rx="18" fill="#e1effa" stroke="#245f87" stroke-width="4" filter="url(#shadow)"/><circle cx="49" cy="1014" r="17" fill="#245f87"/><text x="49" y="1022" text-anchor="middle" class="num">6</text><text x="135" y="1049" text-anchor="middle" class="node"><tspan x="135" dy="0">Minerals</tspan></text></g><g aria-label="Body processes"><rect x="350" y="925" width="225" height="100" rx="18" fill="#dff4e8" stroke="#236443" stroke-width="4" filter="url(#shadow)"/><circle cx="374" cy="949" r="17" fill="#236443"/><text x="374" y="957" text-anchor="middle" class="num">10</text><text x="462.5" y="971.5" text-anchor="middle" class="node-small"><tspan x="462.5" dy="0">Body</tspan><tspan x="462.5" dy="25">processes</tspan></text></g><g aria-label="Water"><rect x="25" y="1160" width="220" height="100" rx="18" fill="#e1effa" stroke="#245f87" stroke-width="4" filter="url(#shadow)"/><circle cx="49" cy="1184" r="17" fill="#245f87"/><text x="49" y="1192" text-anchor="middle" class="num">7</text><text x="135" y="1219" text-anchor="middle" class="node"><tspan x="135" dy="0">Water</tspan></text></g><g aria-label="Hydration and body functions"><rect x="350" y="1160" width="225" height="100" rx="18" fill="#dff4e8" stroke="#236443" stroke-width="4" filter="url(#shadow)"/><circle cx="330" cy="1184" r="17" fill="#236443"/><text x="330" y="1192" text-anchor="middle" class="num">11</text><text x="462.5" y="1194" text-anchor="middle" class="node-small"><tspan x="462.5" dy="0">Hydration and</tspan><tspan x="462.5" dy="25">body</tspan><tspan x="462.5" dy="25">functions</tspan></text></g></g>
<text x="34" y="1312" class="relation-title">Arrow meanings</text>
<g aria-label="Visible relationship labels"><g><rect x="34" y="1332" width="532" height="40" rx="12" fill="#ffffff" stroke="#e4d5c4"/><text x="52" y="1360" class="relation"><tspan class="relation-steps">1 → 2</tspan><tspan dx="14">may provide</tspan></text></g><g><rect x="34" y="1380" width="532" height="40" rx="12" fill="#ffffff" stroke="#e4d5c4"/><text x="52" y="1408" class="relation"><tspan class="relation-steps">1 → 3</tspan><tspan dx="14">may provide</tspan></text></g><g><rect x="34" y="1428" width="532" height="40" rx="12" fill="#ffffff" stroke="#e4d5c4"/><text x="52" y="1456" class="relation"><tspan class="relation-steps">1 → 4</tspan><tspan dx="14">may provide</tspan></text></g><g><rect x="34" y="1476" width="532" height="40" rx="12" fill="#ffffff" stroke="#e4d5c4"/><text x="52" y="1504" class="relation"><tspan class="relation-steps">1 → 5</tspan><tspan dx="14">may provide</tspan></text></g><g><rect x="34" y="1524" width="532" height="40" rx="12" fill="#ffffff" stroke="#e4d5c4"/><text x="52" y="1552" class="relation"><tspan class="relation-steps">1 → 6</tspan><tspan dx="14">may provide</tspan></text></g><g><rect x="34" y="1572" width="532" height="40" rx="12" fill="#ffffff" stroke="#e4d5c4"/><text x="52" y="1600" class="relation"><tspan class="relation-steps">1 → 7</tspan><tspan dx="14">may provide</tspan></text></g><g><rect x="34" y="1620" width="532" height="40" rx="12" fill="#ffffff" stroke="#e4d5c4"/><text x="52" y="1648" class="relation"><tspan class="relation-steps">2 → 8</tspan><tspan dx="14">connected with</tspan></text></g><g><rect x="34" y="1668" width="532" height="40" rx="12" fill="#ffffff" stroke="#e4d5c4"/><text x="52" y="1696" class="relation"><tspan class="relation-steps">3 → 8</tspan><tspan dx="14">connected with</tspan></text></g><g><rect x="34" y="1716" width="532" height="40" rx="12" fill="#ffffff" stroke="#e4d5c4"/><text x="52" y="1744" class="relation"><tspan class="relation-steps">4 → 9</tspan><tspan dx="14">connected with</tspan></text></g><g><rect x="34" y="1764" width="532" height="40" rx="12" fill="#ffffff" stroke="#e4d5c4"/><text x="52" y="1792" class="relation"><tspan class="relation-steps">5 → 10</tspan><tspan dx="14">connected with</tspan></text></g><g><rect x="34" y="1812" width="532" height="40" rx="12" fill="#ffffff" stroke="#e4d5c4"/><text x="52" y="1840" class="relation"><tspan class="relation-steps">6 → 10</tspan><tspan dx="14">connected with</tspan></text></g><g><rect x="34" y="1860" width="532" height="40" rx="12" fill="#ffffff" stroke="#e4d5c4"/><text x="52" y="1888" class="relation"><tspan class="relation-steps">7 → 11</tspan><tspan dx="14">connected with</tspan></text></g></g>
<text x="34" y="1944" class="relation-title">Structure</text>
<g aria-label="Visual groupings"><text x="36" y="1990" class="group"><tspan class="group-label">Six nutrients:</tspan> 2, 3, 4, 5, 6, 7</text><text x="36" y="2032" class="group"><tspan class="group-label">Broad roles:</tspan> 8, 9, 10, 11</text></g>
<text x="34" y="2094" class="legend-title">Colour key</text>
<g aria-label="Colour meanings"><g><rect x="36" y="2121" width="42" height="42" rx="10" fill="#e1effa" stroke="#245f87" stroke-width="3"/><text x="94" y="2144" class="legend"><tspan class="legend-key">blue</tspan><tspan x="94" dy="27">nutrient names</tspan></text></g><g><rect x="36" y="2225" width="42" height="42" rx="10" fill="#dff4e8" stroke="#236443" stroke-width="3"/><text x="94" y="2248" class="legend"><tspan class="legend-key">green</tspan><tspan x="94" dy="27">broad nutrient connections</tspan></text></g><g><rect x="36" y="2329" width="42" height="42" rx="10" fill="#fff0bf" stroke="#8b5b00" stroke-width="3"/><text x="94" y="2352" class="legend"><tspan class="legend-key">amber</tspan><tspan x="94" dy="27">foods may provide multiple</tspan><tspan x="94" dy="27">nutrients</tspan></text></g></g>

</svg>
